<svg xmlns="http://www.w3.org/2000/svg" xmlns:xlink="http://www.w3.org/1999/xlink" contentStyleType="text/css" height="606px" preserveAspectRatio="none" style="width:1078px;height:606px;background:#FFFFFF;" version="1.1" viewBox="0 0 1078 606" width="1078px" zoomAndPan="magnify"><defs/><g><rect fill="none" height="20.9531" style="stroke:none;stroke-width:1.0;" width="1045.25" x="15" y="12.7451"/><ellipse cx="473.25" cy="48.6982" fill="#222222" rx="10" ry="10" style="stroke:#222222;stroke-width:1.0;"/><rect fill="#F1F1F1" height="33.9688" rx="12.5" ry="12.5" style="stroke:#181818;stroke-width:0.5;" width="263" x="341.75" y="78.6982"/><text fill="#000000" font-family="sans-serif" font-size="12" lengthAdjust="spacing" textLength="243" x="351.75" y="99.8369">match_p = pipes.Pipeline(raw_match_df)</text><path d="M622.25,137.085 L622.25,145.6514 L602.25,149.6514 L622.25,153.6514 L622.25,162.2178 A0,0 0 0 0 622.25,162.2178 L804.25,162.2178 A0,0 0 0 0 804.25,162.2178 L804.25,147.085 L794.25,137.085 L622.25,137.085 A0,0 0 0 0 622.25,137.085 " fill="#FEFFDD" style="stroke:#181818;stroke-width:0.5;"/><path d="M794.25,137.085 L794.25,147.085 L804.25,147.085 L794.25,137.085 " fill="#FEFFDD" style="stroke:#181818;stroke-width:0.5;"/><text fill="#000000" font-family="sans-serif" font-size="13" lengthAdjust="spacing" textLength="161" x="628.25" y="154.1519">custom cleaning function</text><rect fill="#F1F1F1" height="33.9688" rx="12.5" ry="12.5" style="stroke:#181818;stroke-width:0.5;" width="258" x="344.25" y="132.667"/><text fill="#000000" font-family="sans-serif" font-size="12" lengthAdjust="spacing" textLength="238" x="354.25" y="153.8057">match_p.step(remove_invalid_matches)</text><path d="M637.25,183.4873 L637.25,199.6201 L617.25,203.6201 L637.25,207.6201 L637.25,223.7529 A0,0 0 0 0 637.25,223.7529 L786.25,223.7529 A0,0 0 0 0 786.25,223.7529 L786.25,193.4873 L776.25,183.4873 L637.25,183.4873 A0,0 0 0 0 637.25,183.4873 " fill="#FEFFDD" style="stroke:#181818;stroke-width:0.5;"/><path d="M776.25,183.4873 L776.25,193.4873 L786.25,193.4873 L776.25,183.4873 " fill="#FEFFDD" style="stroke:#181818;stroke-width:0.5;"/><text fill="#000000" font-family="sans-serif" font-size="13" lengthAdjust="spacing" textLength="105" x="643.25" y="200.5542">custom cleaning</text><text fill="#000000" font-family="sans-serif" font-size="13" lengthAdjust="spacing" textLength="124" x="647.25" y="215.687">function w/ params</text><rect fill="#F1F1F1" height="33.9688" rx="12.5" ry="12.5" style="stroke:#181818;stroke-width:0.5;" width="288" x="329.25" y="186.6357"/><text fill="#000000" font-family="sans-serif" font-size="12" lengthAdjust="spacing" textLength="268" x="339.25" y="207.7744">match_p.step(drop_columns, columns=cols)</text><polygon fill="#F1F1F1" points="395.25,243.7529,551.25,243.7529,563.25,255.7529,551.25,267.7529,395.25,267.7529,383.25,255.7529,395.25,243.7529" style="stroke:#181818;stroke-width:0.5;"/><text fill="#000000" font-family="sans-serif" font-size="11" lengthAdjust="spacing" textLength="156" x="395.25" y="259.561">player_p = match_p.clone()</text><text fill="#000000" font-family="sans-serif" font-size="11" lengthAdjust="spacing" textLength="105" x="278.25" y="253.1587">pipeline continues</text><text fill="#000000" font-family="sans-serif" font-size="11" lengthAdjust="spacing" textLength="146" x="563.25" y="253.1587">a new pipeline is created</text><rect fill="#F1F1F1" height="33.9688" rx="12.5" ry="12.5" style="stroke:#181818;stroke-width:0.5;" width="231" x="28.5" y="287.7529"/><text fill="#000000" font-family="sans-serif" font-size="12" lengthAdjust="spacing" textLength="211" x="38.5" y="308.8916">match_p.step(other_cleaning_step)</text><path d="M287,341.7217 L287,357.8545 L267,361.8545 L287,365.8545 L287,381.9873 A0,0 0 0 0 287,381.9873 L663,381.9873 A0,0 0 0 0 663,381.9873 L663,351.7217 L653,341.7217 L287,341.7217 A0,0 0 0 0 287,341.7217 " fill="#FEFFDD" style="stroke:#181818;stroke-width:0.5;"/><path d="M653,341.7217 L653,351.7217 L663,351.7217 L653,341.7217 " fill="#FEFFDD" style="stroke:#181818;stroke-width:0.5;"/><text fill="#000000" font-family="sans-serif" font-size="13" lengthAdjust="spacing" textLength="282" x="293" y="358.7886">with `.peek()`, no transformation is applied,</text><text fill="#000000" font-family="sans-serif" font-size="13" lengthAdjust="spacing" textLength="355" x="293" y="373.9214">but it allows inspecting/rendering the data in some way</text><rect fill="#F1F1F1" height="33.9688" rx="12.5" ry="12.5" style="stroke:#181818;stroke-width:0.5;" width="246" x="21" y="344.8701"/><text fill="#000000" font-family="sans-serif" font-size="12" lengthAdjust="spacing" textLength="226" x="31" y="366.0088">match_p.peek(plot_scatter_summary)</text><rect fill="#F1F1F1" height="33.9688" rx="12.5" ry="12.5" style="stroke:#181818;stroke-width:0.5;" width="220" x="34" y="408.2842"/><text fill="#000000" font-family="sans-serif" font-size="12" lengthAdjust="spacing" textLength="200" x="44" y="429.4229">match_p.step(another_operation)</text><path d="M211.5,468.5498 L211.5,492.249 L191.5,496.249 L211.5,500.249 L211.5,523.9482 A0,0 0 0 0 211.5,523.9482 L362.5,523.9482 A0,0 0 0 0 362.5,523.9482 L362.5,478.5498 L352.5,468.5498 L211.5,468.5498 A0,0 0 0 0 211.5,468.5498 " fill="#FEFFDD" style="stroke:#181818;stroke-width:0.5;"/><path d="M352.5,468.5498 L352.5,478.5498 L362.5,478.5498 L352.5,468.5498 " fill="#FEFFDD" style="stroke:#181818;stroke-width:0.5;"/><text fill="#000000" font-family="sans-serif" font-size="13" lengthAdjust="spacing" textLength="130" x="217.5" y="485.6167">extract transformed</text><text fill="#000000" font-family="sans-serif" font-size="13" lengthAdjust="spacing" textLength="103" x="217.5" y="500.7495">dataframe after</text><text fill="#000000" font-family="sans-serif" font-size="13" lengthAdjust="spacing" textLength="126" x="217.5" y="515.8823">all processing steps</text><rect fill="#F1F1F1" height="33.9688" rx="12.5" ry="12.5" style="stroke:#181818;stroke-width:0.5;" width="95" x="96.5" y="479.2646"/><text fill="#000000" font-family="sans-serif" font-size="12" lengthAdjust="spacing" textLength="75" x="106.5" y="500.4033">match_p.df()</text><ellipse cx="144" cy="568.9482" fill="none" rx="10" ry="10" style="stroke:#222222;stroke-width:1.5;"/><line style="stroke:#222222;stroke-width:2.5;" x1="137.8128" x2="150.1872" y1="562.7611" y2="575.1354"/><line style="stroke:#222222;stroke-width:2.5;" x1="150.1872" x2="137.8128" y1="562.7611" y2="575.1354"/><line style="stroke:#000000;stroke-width:1.5;" x1="15" x2="15" y1="12.7451" y2="594.9482"/><rect fill="#F1F1F1" height="33.9688" rx="12.5" ry="12.5" style="stroke:#181818;stroke-width:0.5;" width="205" x="832.25" y="287.7529"/><text fill="#000000" font-family="sans-serif" font-size="12" lengthAdjust="spacing" textLength="185" x="842.25" y="308.8916">player_p.step(extract_players)</text><rect fill="#F1F1F1" height="33.9688" rx="12.5" ry="12.5" style="stroke:#181818;stroke-width:0.5;" width="229" x="820.25" y="341.7217"/><text fill="#000000" font-family="sans-serif" font-size="12" lengthAdjust="spacing" textLength="209" x="830.25" y="362.8604">player_p.step(summarize_players)</text><rect fill="#F1F1F1" height="33.9688" rx="12.5" ry="12.5" style="stroke:#181818;stroke-width:0.5;" width="239" x="815.25" y="401.9873"/><text fill="#000000" font-family="sans-serif" font-size="12" lengthAdjust="spacing" textLength="219" x="825.25" y="423.126">player_p.step(create_player_model)</text><rect fill="#F1F1F1" height="33.9688" rx="12.5" ry="12.5" style="stroke:#181818;stroke-width:0.5;" width="29" x="920.25" y="462.2529"/><text fill="#000000" font-family="sans-serif" font-size="12" lengthAdjust="spacing" textLength="9" x="930.25" y="483.3916">...</text><ellipse cx="934.75" cy="541.2217" fill="none" rx="10" ry="10" style="stroke:#222222;stroke-width:1.5;"/><line style="stroke:#222222;stroke-width:2.5;" x1="928.5628" x2="940.9372" y1="535.0345" y2="547.4089"/><line style="stroke:#222222;stroke-width:2.5;" x1="940.9372" x2="928.5628" y1="535.0345" y2="547.4089"/><line style="stroke:#000000;stroke-width:1.5;" x1="809.25" x2="809.25" y1="12.7451" y2="594.9482"/><line style="stroke:#000000;stroke-width:1.5;" x1="1058.25" x2="1058.25" y1="12.7451" y2="594.9482"/><line style="stroke:#181818;stroke-width:1.0;" x1="473.25" x2="473.25" y1="58.6982" y2="78.6982"/><polygon fill="#181818" points="469.25,68.6982,473.25,78.6982,477.25,68.6982,473.25,72.6982" style="stroke:#181818;stroke-width:1.0;"/><line style="stroke:#181818;stroke-width:1.0;" x1="473.25" x2="473.25" y1="112.667" y2="132.667"/><polygon fill="#181818" points="469.25,122.667,473.25,132.667,477.25,122.667,473.25,126.667" style="stroke:#181818;stroke-width:1.0;"/><line style="stroke:#181818;stroke-width:1.0;" x1="473.25" x2="473.25" y1="166.6357" y2="186.6357"/><polygon fill="#181818" points="469.25,176.6357,473.25,186.6357,477.25,176.6357,473.25,180.6357" style="stroke:#181818;stroke-width:1.0;"/><line style="stroke:#181818;stroke-width:1.0;" x1="144" x2="144" y1="321.7217" y2="344.8701"/><polygon fill="#181818" points="140,334.8701,144,344.8701,148,334.8701,144,338.8701" style="stroke:#181818;stroke-width:1.0;"/><line style="stroke:#181818;stroke-width:1.0;" x1="144" x2="144" y1="378.8389" y2="408.2842"/><polygon fill="#181818" points="140,398.2842,144,408.2842,148,398.2842,144,402.2842" style="stroke:#181818;stroke-width:1.0;"/><line style="stroke:#181818;stroke-width:1.0;" x1="144" x2="144" y1="442.2529" y2="479.2646"/><polygon fill="#181818" points="140,469.2646,144,479.2646,148,469.2646,144,473.2646" style="stroke:#181818;stroke-width:1.0;"/><line style="stroke:#181818;stroke-width:1.0;" x1="144" x2="144" y1="513.2334" y2="558.9482"/><polygon fill="#181818" points="140,548.9482,144,558.9482,148,548.9482,144,552.9482" style="stroke:#181818;stroke-width:1.0;"/><line style="stroke:#181818;stroke-width:1.0;" x1="383.25" x2="144" y1="255.7529" y2="255.7529"/><line style="stroke:#181818;stroke-width:1.0;" x1="144" x2="144" y1="255.7529" y2="287.7529"/><polygon fill="#181818" points="140,277.7529,144,287.7529,148,277.7529,144,281.7529" style="stroke:#181818;stroke-width:1.0;"/><line style="stroke:#181818;stroke-width:1.0;" x1="473.25" x2="473.25" y1="220.6045" y2="243.7529"/><polygon fill="#181818" points="469.25,233.7529,473.25,243.7529,477.25,233.7529,473.25,237.7529" style="stroke:#181818;stroke-width:1.0;"/><line style="stroke:#181818;stroke-width:1.0;" x1="934.75" x2="934.75" y1="321.7217" y2="341.7217"/><polygon fill="#181818" points="930.75,331.7217,934.75,341.7217,938.75,331.7217,934.75,335.7217" style="stroke:#181818;stroke-width:1.0;"/><line style="stroke:#181818;stroke-width:1.0;" x1="934.75" x2="934.75" y1="375.6904" y2="401.9873"/><polygon fill="#181818" points="930.75,391.9873,934.75,401.9873,938.75,391.9873,934.75,395.9873" style="stroke:#181818;stroke-width:1.0;"/><line style="stroke:#181818;stroke-width:1.0;" x1="934.75" x2="934.75" y1="435.9561" y2="462.2529"/><polygon fill="#181818" points="930.75,452.2529,934.75,462.2529,938.75,452.2529,934.75,456.2529" style="stroke:#181818;stroke-width:1.0;"/><line style="stroke:#181818;stroke-width:1.0;" x1="934.75" x2="934.75" y1="496.2217" y2="531.2217"/><polygon fill="#181818" points="930.75,521.2217,934.75,531.2217,938.75,521.2217,934.75,525.2217" style="stroke:#181818;stroke-width:1.0;"/><line style="stroke:#181818;stroke-width:1.0;" x1="563.25" x2="934.75" y1="255.7529" y2="255.7529"/><line style="stroke:#181818;stroke-width:1.0;" x1="934.75" x2="934.75" y1="255.7529" y2="287.7529"/><polygon fill="#181818" points="930.75,277.7529,934.75,287.7529,938.75,277.7529,934.75,281.7529" style="stroke:#181818;stroke-width:1.0;"/><text fill="#000000" font-family="sans-serif" font-size="18" lengthAdjust="spacing" textLength="159" x="332.625" y="29.4531">matches pipeline</text><text fill="#000000" font-family="sans-serif" font-size="18" lengthAdjust="spacing" textLength="148" x="859.75" y="29.4531">players pipeline</text><!--SRC=[XP7HJlCm38Nl-nI-xAIft8Du1nvWKZ29kqMaJfIubA4zF6wR3WRe_tkJAZuv_evz6L3iYGeadoXufajJ1BCqzql197XSIgLxge8susJMekjt3rTXLuHIcsc8RsGyls7mpbHtbN4KWkoF9xa7EnQ90zX0o9wFq8zinKV-uULoJCR6C0vSzb1_7lNyZz-1huumtK72Z4DfV0zj2dYcl8JQEjaGDTDk1t8YLaLDgUrOF8_Ate1-bzzpcgzlWQDwPBDXcFbEIMzqYUXLCQAOOb54vMKS1ipdAlmUQ_9oWkVroUvvhpMGZ5pwcDLkJkSBO4h1aziV-6KKy08OGfmAU2w9T0PylCl4Zl8yQEK3Xu9QXH87WWdFV-H0NfF4H7bfz3E5wzi_UEbTyQnyGP8xyDokrmKGOAzn3wnya7AqLCgCD3SiYvLIDXGAGOl0D5qdFQUqcL38rLsiQ_orYssxQuXAOwfuYt0hMeVlF-ZVihLzrPWXEWgRiEkwXozyThx_1000]--></g></svg>